<mxfile host="app.diagrams.net" modified="2023-06-06T03:04:44.814Z" agent="Mozilla/5.0 (Macintosh; Intel Mac OS X 10_15_5) AppleWebKit/537.36 (KHTML, like Gecko) Chrome/81.0.4044.138 Safari/537.36" etag="SndgZ_AQpt0x0JsyL4kz" version="21.3.7" type="github">
  <diagram id="prtHgNgQTEPvFCAcTncT" name="Page-1">
    <mxGraphModel dx="880" dy="550" grid="1" gridSize="10" guides="1" tooltips="1" connect="1" arrows="1" fold="1" page="1" pageScale="1" pageWidth="827" pageHeight="1169" math="0" shadow="0">
      <root>
        <mxCell id="0" />
        <mxCell id="1" parent="0" />
        <mxCell id="Q7lMRTNvbiU8T2WFOqJc-5" value="Scene" style="swimlane;fontStyle=0;childLayout=stackLayout;horizontal=1;startSize=30;horizontalStack=0;resizeParent=1;resizeParentMax=0;resizeLast=0;collapsible=1;marginBottom=0;whiteSpace=wrap;html=1;" vertex="1" parent="1">
          <mxGeometry x="50" y="20" width="280" height="190" as="geometry" />
        </mxCell>
        <mxCell id="Q7lMRTNvbiU8T2WFOqJc-6" value="&lt;div style=&quot;border-color: var(--border-color);&quot;&gt;&lt;span style=&quot;background-color: initial;&quot;&gt;int rex_scene_add(char* id, char* json);&lt;/span&gt;&lt;br&gt;&lt;/div&gt;&lt;div style=&quot;border-color: var(--border-color);&quot;&gt;&lt;span style=&quot;border-color: var(--border-color); background-color: initial;&quot;&gt;int rex_scene_delete(char* id);&lt;/span&gt;&lt;/div&gt;&lt;div style=&quot;border-color: var(--border-color);&quot;&gt;&lt;span style=&quot;border-color: var(--border-color); background-color: initial;&quot;&gt;int rex_scene_update(&lt;/span&gt;&lt;span style=&quot;border-color: var(--border-color); background-color: initial;&quot;&gt;char* id, char* json);&lt;/span&gt;&lt;/div&gt;&lt;div style=&quot;border-color: var(--border-color);&quot;&gt;int rex_scene_get(char* id);&lt;span style=&quot;border-color: var(--border-color); background-color: initial;&quot;&gt;&lt;br style=&quot;border-color: var(--border-color);&quot;&gt;&lt;/span&gt;&lt;/div&gt;&lt;div style=&quot;border-color: var(--border-color);&quot;&gt;int rex_scene_trigger_by_id(char* id);&lt;br style=&quot;border-color: var(--border-color);&quot;&gt;&lt;/div&gt;&lt;div style=&quot;border-color: var(--border-color);&quot;&gt;int rex_scene_trigger_by_condition(char* json);&lt;br style=&quot;border-color: var(--border-color);&quot;&gt;&lt;/div&gt;&lt;div style=&quot;border-color: var(--border-color);&quot;&gt;int rex_scene_trigger_history(char* history);&lt;br style=&quot;border-color: var(--border-color);&quot;&gt;&lt;/div&gt;&lt;div style=&quot;border-color: var(--border-color);&quot;&gt;int rex_scene_changed_notify(void* callback,...);&lt;/div&gt;" style="text;strokeColor=none;fillColor=none;align=left;verticalAlign=middle;spacingLeft=4;spacingRight=4;overflow=hidden;points=[[0,0.5],[1,0.5]];portConstraint=eastwest;rotatable=0;whiteSpace=wrap;html=1;" vertex="1" parent="Q7lMRTNvbiU8T2WFOqJc-5">
          <mxGeometry y="30" width="280" height="160" as="geometry" />
        </mxCell>
        <mxCell id="Q7lMRTNvbiU8T2WFOqJc-9" value="NetworkManager" style="swimlane;fontStyle=0;childLayout=stackLayout;horizontal=1;startSize=30;horizontalStack=0;resizeParent=1;resizeParentMax=0;resizeLast=0;collapsible=1;marginBottom=0;whiteSpace=wrap;html=1;" vertex="1" parent="1">
          <mxGeometry x="400" y="310" width="340" height="220" as="geometry" />
        </mxCell>
        <mxCell id="Q7lMRTNvbiU8T2WFOqJc-10" value="&lt;div style=&quot;border-color: var(--border-color);&quot;&gt;&lt;span style=&quot;background-color: initial;&quot;&gt;int rex_network_add(char* id, char* json);&lt;/span&gt;&lt;br&gt;&lt;/div&gt;&lt;div style=&quot;border-color: var(--border-color);&quot;&gt;&lt;span style=&quot;border-color: var(--border-color); background-color: initial;&quot;&gt;int rex_network_delete(char* id);&lt;/span&gt;&lt;/div&gt;&lt;div style=&quot;border-color: var(--border-color);&quot;&gt;&lt;span style=&quot;border-color: var(--border-color); background-color: initial;&quot;&gt;int rex_network_update(&lt;/span&gt;&lt;span style=&quot;border-color: var(--border-color); background-color: initial;&quot;&gt;char* id, char* json);&lt;/span&gt;&lt;/div&gt;&lt;div style=&quot;border-color: var(--border-color);&quot;&gt;int rex_network_get(char* id);&lt;span style=&quot;border-color: var(--border-color); background-color: initial;&quot;&gt;&lt;br style=&quot;border-color: var(--border-color);&quot;&gt;&lt;/span&gt;&lt;/div&gt;&lt;div style=&quot;border-color: var(--border-color);&quot;&gt;int rex_network_enable(char* id);&lt;br style=&quot;border-color: var(--border-color);&quot;&gt;&lt;/div&gt;&lt;div style=&quot;border-color: var(--border-color);&quot;&gt;int rex_network_disable(char* id);&lt;br style=&quot;border-color: var(--border-color);&quot;&gt;&lt;/div&gt;&lt;div style=&quot;border-color: var(--border-color);&quot;&gt;int rex_network_node_add(char* id, char* json);&lt;br style=&quot;border-color: var(--border-color);&quot;&gt;&lt;/div&gt;&lt;div style=&quot;border-color: var(--border-color);&quot;&gt;int rex_network_node_delete(void* id);&lt;/div&gt;&lt;div style=&quot;border-color: var(--border-color);&quot;&gt;int rex_network_node_get(void* id);&lt;br&gt;&lt;/div&gt;&lt;div style=&quot;border-color: var(--border-color);&quot;&gt;int rex_network_changed_notify(void* callback);&lt;br&gt;&lt;/div&gt;&lt;div style=&quot;border-color: var(--border-color);&quot;&gt;int rex_network_node_changed_notify(void* callback);&lt;br&gt;&lt;/div&gt;" style="text;strokeColor=none;fillColor=none;align=left;verticalAlign=middle;spacingLeft=4;spacingRight=4;overflow=hidden;points=[[0,0.5],[1,0.5]];portConstraint=eastwest;rotatable=0;whiteSpace=wrap;html=1;" vertex="1" parent="Q7lMRTNvbiU8T2WFOqJc-9">
          <mxGeometry y="30" width="340" height="190" as="geometry" />
        </mxCell>
        <mxCell id="Q7lMRTNvbiU8T2WFOqJc-14" value="DeviceManager" style="swimlane;fontStyle=0;childLayout=stackLayout;horizontal=1;startSize=30;horizontalStack=0;resizeParent=1;resizeParentMax=0;resizeLast=0;collapsible=1;marginBottom=0;whiteSpace=wrap;html=1;" vertex="1" parent="1">
          <mxGeometry x="400" y="20" width="340" height="240" as="geometry" />
        </mxCell>
        <mxCell id="Q7lMRTNvbiU8T2WFOqJc-15" value="&lt;div style=&quot;border-color: var(--border-color);&quot;&gt;&lt;span style=&quot;background-color: initial;&quot;&gt;int rex_device_add(char* id, char* json);&lt;/span&gt;&lt;br&gt;&lt;/div&gt;&lt;div style=&quot;border-color: var(--border-color);&quot;&gt;&lt;span style=&quot;border-color: var(--border-color); background-color: initial;&quot;&gt;int rex_device_delete(char* id);&lt;/span&gt;&lt;/div&gt;&lt;div style=&quot;border-color: var(--border-color);&quot;&gt;int rex_device_get(char* id, char* json);&lt;span style=&quot;border-color: var(--border-color); background-color: initial;&quot;&gt;&lt;br style=&quot;border-color: var(--border-color);&quot;&gt;&lt;/span&gt;&lt;/div&gt;&lt;div style=&quot;border-color: var(--border-color);&quot;&gt;int rex_device_property_set(char* id, char* json);&lt;br style=&quot;border-color: var(--border-color);&quot;&gt;&lt;/div&gt;&lt;div style=&quot;border-color: var(--border-color);&quot;&gt;int rex_device_property_get(char* id, char* json);&lt;br style=&quot;border-color: var(--border-color);&quot;&gt;&lt;/div&gt;&lt;div style=&quot;border-color: var(--border-color);&quot;&gt;&lt;div style=&quot;border-color: var(--border-color);&quot;&gt;int rex_device_service_invoke(char* id, char* json);&lt;/div&gt;&lt;div style=&quot;border-color: var(--border-color);&quot;&gt;int rex_device_changed_notify(void* callback,...);&lt;br&gt;&lt;/div&gt;&lt;/div&gt;&lt;div style=&quot;border-color: var(--border-color);&quot;&gt;int rex_device_group_add(char* id, char* json);&lt;br style=&quot;border-color: var(--border-color);&quot;&gt;&lt;/div&gt;&lt;div style=&quot;border-color: var(--border-color);&quot;&gt;int rex_device_group_delete(char* id, char* json);&lt;/div&gt;&lt;div style=&quot;border-color: var(--border-color);&quot;&gt;&lt;div style=&quot;border-color: var(--border-color);&quot;&gt;int rex_device_group_update(char* id, char* json);&lt;/div&gt;&lt;div style=&quot;border-color: var(--border-color);&quot;&gt;int rex_device_group_property_set(char* id, char* json);&lt;/div&gt;&lt;div style=&quot;border-color: var(--border-color);&quot;&gt;&lt;div style=&quot;border-color: var(--border-color);&quot;&gt;int rex_device_group_property_get(char* id, char* json);&lt;/div&gt;&lt;div style=&quot;border-color: var(--border-color);&quot;&gt;&lt;div style=&quot;border-color: var(--border-color);&quot;&gt;int rex_device_group_service_invoke(char* id, char* json);&lt;/div&gt;&lt;div style=&quot;border-color: var(--border-color);&quot;&gt;int rex_device_group_changed_notify(void* callback,...);&lt;br&gt;&lt;/div&gt;&lt;/div&gt;&lt;/div&gt;&lt;/div&gt;" style="text;strokeColor=none;fillColor=none;align=left;verticalAlign=middle;spacingLeft=4;spacingRight=4;overflow=hidden;points=[[0,0.5],[1,0.5]];portConstraint=eastwest;rotatable=0;whiteSpace=wrap;html=1;" vertex="1" parent="Q7lMRTNvbiU8T2WFOqJc-14">
          <mxGeometry y="30" width="340" height="210" as="geometry" />
        </mxCell>
        <mxCell id="Q7lMRTNvbiU8T2WFOqJc-16" value="xModel" style="swimlane;fontStyle=0;childLayout=stackLayout;horizontal=1;startSize=30;horizontalStack=0;resizeParent=1;resizeParentMax=0;resizeLast=0;collapsible=1;marginBottom=0;whiteSpace=wrap;html=1;" vertex="1" parent="1">
          <mxGeometry x="50" y="310" width="280" height="190" as="geometry" />
        </mxCell>
        <mxCell id="Q7lMRTNvbiU8T2WFOqJc-17" value="&lt;div style=&quot;border-color: var(--border-color);&quot;&gt;&lt;span style=&quot;background-color: initial;&quot;&gt;int rex_model_add(char* id, char* json);&lt;/span&gt;&lt;br&gt;&lt;/div&gt;&lt;div style=&quot;border-color: var(--border-color);&quot;&gt;int rex_model&lt;span style=&quot;border-color: var(--border-color); background-color: initial;&quot;&gt;_delete(char* id);&lt;/span&gt;&lt;/div&gt;&lt;div style=&quot;border-color: var(--border-color);&quot;&gt;&lt;span style=&quot;border-color: var(--border-color); background-color: initial;&quot;&gt;int rex_model_update(&lt;/span&gt;&lt;span style=&quot;border-color: var(--border-color); background-color: initial;&quot;&gt;char* id, char* json);&lt;/span&gt;&lt;/div&gt;&lt;div style=&quot;border-color: var(--border-color);&quot;&gt;int rex_model_get(char* id);&lt;span style=&quot;border-color: var(--border-color); background-color: initial;&quot;&gt;&lt;br style=&quot;border-color: var(--border-color);&quot;&gt;&lt;/span&gt;&lt;/div&gt;&lt;div style=&quot;border-color: var(--border-color);&quot;&gt;int rex_model_transfer(char* property, char* json);&lt;/div&gt;&lt;div style=&quot;border-color: var(--border-color);&quot;&gt;int rex_model_changed_notify(void* callback,...);&lt;/div&gt;" style="text;strokeColor=none;fillColor=none;align=left;verticalAlign=middle;spacingLeft=4;spacingRight=4;overflow=hidden;points=[[0,0.5],[1,0.5]];portConstraint=eastwest;rotatable=0;whiteSpace=wrap;html=1;" vertex="1" parent="Q7lMRTNvbiU8T2WFOqJc-16">
          <mxGeometry y="30" width="280" height="160" as="geometry" />
        </mxCell>
      </root>
    </mxGraphModel>
  </diagram>
</mxfile>
